<?xml version="1.0" standalone="no"?>
<!DOCTYPE svg PUBLIC "-//W3C//DTD SVG 1.1//EN" "http://www.w3.org/Graphics/SVG/1.1/DTD/svg11.dtd" >
<svg xmlns="http://www.w3.org/2000/svg">
<metadata></metadata>
<defs>
<font id="solidoextrabold_italic" horiz-adv-x="1236" >
<font-face units-per-em="2048" ascent="1536" descent="-512" />
<missing-glyph horiz-adv-x="409" />
<glyph unicode="&#xfb01;" horiz-adv-x="1150" d="M117 -410l133 1254h-113l19 180h114l17 162q15 154 93 221.5t222 67.5h594l-33 -316h-266l12 115h-237q-61 0 -89 -28.5t-34 -88.5l-12 -133h206l-20 -180h-207l-133 -1254h-266zM774 0l109 1024h266l-109 -1024h-266z" />
<glyph unicode="&#xfb02;" horiz-adv-x="1150" d="M117 -410l133 1254h-113l19 180h114l17 162q15 154 93 221.5t222 67.5h594l-156 -1475h-266l135 1274h-237q-61 0 -89 -28.5t-34 -88.5l-12 -133h206l-20 -180h-207l-133 -1254h-266z" />
<glyph horiz-adv-x="2048" />
<glyph horiz-adv-x="2048" />
<glyph unicode="&#xd;" horiz-adv-x="2048" />
<glyph unicode=" "  horiz-adv-x="409" />
<glyph unicode="&#x09;" horiz-adv-x="409" />
<glyph unicode="&#xa0;" horiz-adv-x="409" />
<glyph unicode="!" horiz-adv-x="552" d="M135 0h281l28 258h-280zM221 422v397l66 615h280l-65 -615l-84 -397h-197z" />
<glyph unicode="&#x22;" horiz-adv-x="942" d="M231 1176l27 258h238l-29 -258l-74 -297h-149zM721 1176l29 258h237l-29 -258l-73 -297h-152z" />
<glyph unicode="#" horiz-adv-x="1323" d="M129 420l14 141h267l34 334h-266l15 141h266l43 398h143l-43 -398h342l43 398h143l-43 -398h261l-17 -141h-258l-35 -334h258l-12 -141h-260l-45 -420h-143l45 420h-342l-45 -420h-144l45 420h-266zM553 561h342l35 334h-342z" />
<glyph unicode="$" horiz-adv-x="1187" d="M121 358q0 27 12 154h266q-12 -111 -12 -131q0 -88 63.5 -133t163.5 -45q104 0 175 44.5t77 123.5v30q0 37 -22 67.5t-60.5 53.5t-88 44.5t-104 43.5t-109.5 46t-104 57t-87 72.5t-60.5 96t-21.5 124.5q0 20 4 63q17 163 140.5 264.5t322.5 118.5l18 186h144l-19 -188 q178 -17 278.5 -117.5t100.5 -257.5q0 -34 -16 -153h-267q15 109 15 131q0 84 -56 131t-151 47q-99 0 -160 -43.5t-69 -118.5q-2 -16 -2 -29q-2 -50 33.5 -88t94 -63.5t129 -50t141.5 -56t129.5 -72t95 -107t36.5 -152.5q0 -21 -4 -66q-13 -162 -147.5 -271t-335.5 -130 l-21 -189h-143l20 187q-185 17 -292 118t-107 258z" />
<glyph unicode="%" horiz-adv-x="1720" d="M168 797q0 22 41 399q12 114 106.5 186t231.5 72q128 0 205 -64t77 -167q0 -23 -41 -398q-12 -114 -105 -185t-230 -71q-128 0 -206.5 63t-78.5 165zM340 813q0 -50 35 -79t92 -29q61 0 103 32t48 88q39 358 39 385q0 50 -35 79.5t-90 29.5q-61 0 -103 -33.5t-48 -89.5 q-41 -360 -41 -383zM399 0h142l929 1434h-141zM1040 215q0 22 43 399q12 114 106 186t230 72q128 0 206.5 -64t78.5 -167q0 -22 -43 -397q-12 -114 -105.5 -185t-230.5 -71q-129 0 -207 62.5t-78 164.5zM1214 231q0 -50 35 -79t92 -29q60 0 102 32.5t48 88.5q39 358 39 385 q0 50 -35 79t-90 29q-61 0 -103.5 -33.5t-48.5 -89.5q-39 -360 -39 -383z" />
<glyph unicode="&#x26;" horiz-adv-x="1384" d="M125 358q0 40 6 93q25 176 195 299q-101 116 -101 251q0 31 4 68q19 179 163 282t372 103q211 0 330.5 -103t119.5 -276q0 -28 -14 -153h-272q12 111 12 133q0 83 -53.5 129.5t-145.5 46.5q-100 0 -163.5 -43.5t-67.5 -118.5q-2 -14 -2 -33q0 -98 104 -188l281 -248 l20 191h490l-23 -222h-209l-20 -184l-2 -10l194 -170l-22 -205h-166l-137 123q-159 -143 -430 -143q-211 0 -337 103.5t-126 274.5zM406 379q0 -89 57.5 -132.5t154.5 -43.5q155 0 218 84l-349 311q-66 -63 -75 -147q-6 -47 -6 -72z" />
<glyph unicode="'" horiz-adv-x="450" d="M231 1176l27 258h238l-29 -258l-74 -297h-149z" />
<glyph unicode="(" horiz-adv-x="628" d="M145 563q0 -230 66.5 -461t191.5 -409h166q-176 360 -176 792q0 134 19 276.5t61 306t121.5 338.5t189.5 335h-166q-126 -138 -221.5 -302.5t-148 -322t-78 -296t-25.5 -257.5z" />
<glyph unicode=")" horiz-adv-x="626" d="M-6 -307q113 162 193.5 338.5t122 340.5t59.5 303.5t18 272.5q0 431 -178 793h166q127 -178 193.5 -409.5t66.5 -463.5q0 -120 -26 -259.5t-79.5 -296t-149 -320t-220.5 -299.5h-166z" />
<glyph unicode="*" horiz-adv-x="733" d="M197 1085l188 82l-172 80l86 123l147 -110v192h144l-39 -192l172 110l57 -123l-188 -80l172 -82l-84 -122l-148 112l-4 -194h-141l39 194l-170 -112z" />
<glyph unicode="+" horiz-adv-x="917" d="M147 623l23 208h270l29 273h209l-29 -273h275l-23 -208h-274l-29 -273h-207l29 273h-273z" />
<glyph unicode="," horiz-adv-x="468" d="M-6 -295h194l166 295l27 258h-238l-26 -258z" />
<glyph unicode="-" horiz-adv-x="909" d="M150 408l22 208h696l-22 -208h-696z" />
<glyph unicode="." horiz-adv-x="468" d="M117 0h237l27 258h-238z" />
<glyph unicode="/" horiz-adv-x="1009" d="M47 0h141l930 1434h-141z" />
<glyph unicode="0" horiz-adv-x="1247" d="M150 358q0 50 69 670q20 189 176 307.5t383 118.5q213 0 342 -105.5t129 -277.5q0 -41 -69 -665q-20 -189 -175.5 -307.5t-381.5 -118.5q-213 0 -343 104.5t-130 273.5zM432 383q0 -85 58.5 -132.5t154.5 -47.5q102 0 173.5 55t80.5 148q68 616 68 645q0 85 -58.5 132.5 t-154.5 47.5q-102 0 -173.5 -55t-80.5 -148q-68 -618 -68 -645z" />
<glyph unicode="1" horiz-adv-x="1001" d="M84 0l22 223h300l104 987h-299l25 224h579l-129 -1211h299l-24 -223h-877z" />
<glyph unicode="2" horiz-adv-x="1204" d="M86 0l23 229q10 97 60 179t122 139t156.5 106t168.5 89.5t154 80t116 88t52 103.5q4 25 4 37q0 85 -58.5 132.5t-154.5 47.5q-102 0 -170.5 -54.5t-77.5 -148.5l-10 -76h-266l10 76q19 191 165.5 308.5t371.5 117.5q214 0 342.5 -105t128.5 -278q0 -32 -4 -63 q-18 -96 -72 -177.5t-126.5 -137.5t-156 -104t-164.5 -87.5t-148.5 -78.5t-112 -86t-50.5 -101v-13h748l-25 -223h-1026z" />
<glyph unicode="3" horiz-adv-x="1196" d="M121 358q0 31 10 123h281q-9 -88 -9 -98q0 -85 58.5 -132.5t154.5 -47.5q102 0 173 51t81 145q2 33 2 54q0 82 -58.5 128t-154.5 46h-102l23 223h102q102 0 173.5 53.5t74.5 138.5v23q0 78 -56 122t-151 44q-100 0 -169 -54.5t-79 -148.5l-8 -76h-266l8 76 q20 191 167 308.5t372 117.5q210 0 328 -92t118 -250q0 -24 -2 -49q-7 -110 -72 -192.5t-166 -127.5q94 -40 147.5 -112t53.5 -172q0 -25 -8 -82q-21 -186 -172.5 -291.5t-382.5 -105.5q-212 0 -341.5 104.5t-129.5 273.5z" />
<glyph unicode="4" horiz-adv-x="1263" d="M82 340l24 221l766 873h281l-92 -873h211l-25 -221h-211l-35 -340h-280l35 340h-674zM410 561h370l47 461z" />
<glyph unicode="5" horiz-adv-x="1181" d="M137 356q0 33 10 125h267q-8 -72 -8 -98q0 -85 58 -132.5t152 -47.5q102 0 173 55t81 148q15 130 15 149q0 83 -58.5 128.5t-154.5 45.5h-471l73 705h910l-23 -224h-645l-27 -258h205q214 0 343.5 -103.5t129.5 -273.5q0 -22 -14 -169q-20 -189 -176 -307.5t-383 -118.5 q-211 0 -334 103t-123 273z" />
<glyph unicode="6" horiz-adv-x="1218" d="M150 358q0 52 69 670q20 189 176 307.5t383 118.5q210 0 330.5 -103.5t120.5 -275.5q0 -35 -12 -123h-267q11 81 11 101q0 83 -56.5 130.5t-150.5 47.5q-102 0 -173.5 -55t-80.5 -148l-19 -178h232q212 0 341.5 -102t129.5 -271q0 -30 -4 -71q-20 -189 -175.5 -307.5 t-381.5 -118.5q-213 0 -343 104.5t-130 273.5zM432 383q0 -85 58.5 -132.5t154.5 -47.5q102 0 172 54.5t82 148.5q4 33 4 49q0 82 -59 127t-156 45h-231q-25 -221 -25 -244z" />
<glyph unicode="7" horiz-adv-x="1054" d="M176 1210l23 224h964l-24 -224q-125 -131 -221.5 -260.5t-179 -279t-135 -318.5t-71.5 -352h-294q33 314 194.5 632t425.5 578h-682z" />
<glyph unicode="8" horiz-adv-x="1204" d="M125 332q0 30 4 69q12 116 80.5 199.5t181.5 130.5q-81 47 -124.5 120.5t-43.5 160.5q0 24 4 55q17 176 160 281.5t369 105.5q209 0 327.5 -92t118.5 -250q0 -30 -4 -63q-12 -110 -70 -192.5t-155 -129.5q89 -42 137.5 -114t48.5 -169q0 -28 -4 -67q-20 -186 -172 -291.5 t-383 -105.5q-217 0 -346 93t-129 259zM410 373q0 -81 59 -125.5t154 -44.5q104 0 176 52t78 144q2 25 2 39q0 79 -59 126.5t-154 47.5q-102 0 -173 -53.5t-81 -142.5q-2 -25 -2 -43zM481 1006q0 -78 58 -125t151 -47q100 0 172 54.5t76 139.5v35q0 80 -56 124t-151 44 q-102 0 -170 -51t-78 -142q-2 -18 -2 -32z" />
<glyph unicode="9" horiz-adv-x="1218" d="M141 358q0 26 11 123h266q-10 -74 -10 -100q0 -84 56 -131t150 -47q102 0 173.5 55t80.5 148l19 178h-232q-213 0 -342 102t-129 270q0 31 4 72q20 189 176.5 307.5t383.5 118.5q212 0 341.5 -105t129.5 -274q0 -42 -68 -669q-22 -189 -177 -307.5t-382 -118.5 q-211 0 -331 103t-120 275zM465 979q0 -82 59.5 -127t155.5 -45h231q25 221 25 244q0 85 -58.5 132.5t-154.5 47.5q-100 0 -171 -55t-83 -148q-4 -33 -4 -49z" />
<glyph unicode=":" horiz-adv-x="477" d="M133 117h238l26 260h-237zM182 586h236l28 260h-237z" />
<glyph unicode=";" horiz-adv-x="544" d="M43 -295h195l165 295l27 258h-237l-27 -258zM225 586h238l29 260h-238z" />
<glyph unicode="&#x3c;" horiz-adv-x="872" d="M145 627l23 194l692 226l-22 -209l-381 -113v-4l356 -111l-22 -209z" />
<glyph unicode="=" horiz-adv-x="937" d="M166 442l22 209h697l-23 -209h-696zM205 803l22 209h697l-23 -209h-696z" />
<glyph unicode="&#x3e;" horiz-adv-x="872" d="M166 401l690 226l21 194l-644 226l-20 -209l356 -113v-4l-381 -111z" />
<glyph unicode="?" horiz-adv-x="1150" d="M168 952l8 76q20 191 167 308.5t372 117.5q213 0 342 -105.5t129 -277.5q0 -31 -8 -94q-15 -159 -131.5 -271t-296.5 -143l-43 -170h-209l41 381h104q101 0 173 55t81 148q6 47 6 74q0 85 -58.5 132.5t-154.5 47.5q-100 0 -169 -54.5t-79 -148.5l-8 -76h-266zM420 0 l29 258h280l-29 -258h-280z" />
<glyph unicode="@" horiz-adv-x="1419" d="M133 213q0 41 51 526q8 80 33 150.5t76 137.5t124 115.5t183.5 77.5t247.5 29q153 0 265 -36t174.5 -99t91 -138.5t28.5 -166.5q0 -53 -61 -633h-486l-20 72q-66 -82 -174 -82q-89 0 -131.5 47.5t-42.5 116.5q0 33 28 286q9 77 62 133t149 56q44 0 91.5 -20t74.5 -70 l27 78h135l-51 -492h170q49 446 49 487q0 138 -95 216.5t-301 78.5q-429 0 -469 -344q-51 -475 -51 -508q0 -135 96.5 -212.5t301.5 -77.5l-17 -166q-153 0 -265 35.5t-174.5 98.5t-91 138t-28.5 166zM657 367q0 -34 21 -56t61 -22q49 0 79.5 31t35.5 81q20 160 20 185 q0 43 -25 69.5t-69 26.5t-69.5 -25.5t-30.5 -64.5q-23 -203 -23 -225z" />
<glyph unicode="A" d="M8 0l625 1444h280l310 -1444h-297l-62 336h-428l-133 -336h-295zM524 557h299l-96 514z" />
<glyph unicode="B" horiz-adv-x="1247" d="M133 0l152 1434h532q196 0 307 -80.5t111 -239.5q0 -33 -4 -72q-23 -202 -205 -292q95 -40 149 -113.5t54 -175.5q0 -27 -6 -70q-20 -188 -159 -289.5t-368 -101.5h-563zM438 223h283q205 0 223 183q4 33 4 51q0 79 -52 119t-134 40h-283zM502 838h235q82 0 139 39.5 t70 130.5q4 39 4 57q0 76 -48.5 110.5t-123.5 34.5h-237z" />
<glyph unicode="C" horiz-adv-x="1212" d="M141 358q0 52 70 670q20 189 175 307.5t382 118.5q214 0 342.5 -105t128.5 -278q0 -28 -14 -149h-267q15 107 15 127q0 84 -65.5 133t-162.5 49q-102 0 -173 -55t-80 -148q-70 -625 -70 -649q0 -88 59 -132t156 -44q107 0 182.5 51.5t85.5 151.5l10 106h267l-11 -106 q-20 -189 -176 -307.5t-383 -118.5q-212 0 -341.5 104.5t-129.5 273.5z" />
<glyph unicode="D" horiz-adv-x="1261" d="M133 0l152 1434h528q210 0 333.5 -103.5t123.5 -273.5q0 -42 -64 -631q-20 -190 -169 -308t-375 -118h-529zM438 223h248q99 0 164.5 51t75.5 152q63 584 63 608q0 82 -55 129t-143 47h-250z" />
<glyph unicode="E" horiz-adv-x="1112" d="M133 0l152 1434h911l-22 -224h-633l-39 -372h512l-25 -222h-510l-41 -393h631l-25 -223h-911z" />
<glyph unicode="F" horiz-adv-x="1093" d="M133 0l152 1434h911l-22 -224h-633l-45 -428h512l-25 -221h-510l-59 -561h-281z" />
<glyph unicode="G" horiz-adv-x="1218" d="M141 358q0 52 70 670q20 189 175 307.5t382 118.5q214 0 342.5 -105t128.5 -278q0 -30 -14 -149h-267q11 110 11 127q0 84 -63.5 133t-160.5 49q-102 0 -173 -55t-80 -148q-70 -625 -70 -649q0 -88 59 -132t156 -44q107 0 182.5 51.5t85.5 151.5l13 118h-238l25 224h503 l-37 -342q-20 -189 -176 -307.5t-383 -118.5q-212 0 -341.5 104.5t-129.5 273.5z" />
<glyph unicode="H" horiz-adv-x="1316" d="M133 0l152 1434h280l-63 -596h487l64 596h280l-151 -1434h-281l66 616h-488l-65 -616h-281z" />
<glyph unicode="I" horiz-adv-x="548" d="M133 0l152 1434h280l-151 -1434h-281z" />
<glyph unicode="J" horiz-adv-x="702" d="M41 0q88 0 153.5 5.5t130.5 20t111.5 41.5t85 68.5t61 103t31.5 142.5l111 1053h-281l-108 -1033q-10 -104 -69 -141t-201 -37z" />
<glyph unicode="K" horiz-adv-x="1222" d="M133 0l152 1434h280l-67 -648l553 648h325l-616 -693l483 -741h-340l-420 668l-69 -668h-281z" />
<glyph unicode="L" horiz-adv-x="1062" d="M135 0l152 1434h280l-127 -1211h611l-25 -223h-891z" />
<glyph unicode="M" horiz-adv-x="1482" d="M133 0l152 1434h297l260 -588l377 588h280l-151 -1434h-281l63 590q15 162 52 375l-281 -433h-223l-186 443q-12 -230 -29 -385l-64 -590h-266z" />
<glyph unicode="N" horiz-adv-x="1357" d="M133 0l152 1434h297l436 -940q9 147 29 350l61 590h266l-151 -1434h-281l-453 944q-7 -160 -26 -354l-64 -590h-266z" />
<glyph unicode="O" horiz-adv-x="1230" d="M141 358q0 -169 129.5 -273.5t341.5 -104.5q227 0 383 118.5t176 307.5q68 625 68 665q0 173 -128.5 278t-342.5 105q-227 0 -382 -118.5t-175 -307.5q-70 -618 -70 -670zM424 383q0 39 68 645q9 93 80 148t173 55q96 0 154.5 -47.5t58.5 -132.5q0 -48 -67 -645 q-9 -93 -80.5 -148t-173.5 -55q-96 0 -154.5 47.5t-58.5 132.5z" />
<glyph unicode="P" horiz-adv-x="1183" d="M133 0l152 1434h508q210 0 333 -103.5t123 -273.5q0 -37 -10 -129q-20 -190 -169.5 -308t-375.5 -118h-227l-53 -502h-281zM489 725h228q100 0 164.5 50.5t76.5 152.5q11 92 11 106q0 82 -55.5 129t-143.5 47h-229z" />
<glyph unicode="Q" horiz-adv-x="1230" d="M141 358q0 52 70 670q20 189 175 307.5t382 118.5q214 0 342.5 -105t128.5 -278q0 -40 -68 -665q-17 -157 -130 -267.5t-287 -144.5q-4 -39 -4 -60q0 -74 51 -97t188 -23l-24 -224q-99 0 -173.5 8t-138 27.5t-103.5 52.5t-62.5 85t-22.5 122q0 8 8 109 q-153 31 -242.5 128t-89.5 236zM424 383q0 -85 58.5 -132.5t154.5 -47.5q102 0 173.5 55t80.5 148q67 597 67 645q0 85 -58.5 132.5t-154.5 47.5q-102 0 -173 -55t-80 -148q-68 -606 -68 -645z" />
<glyph unicode="R" d="M133 0l152 1434h563q202 0 303.5 -93t101.5 -249q0 -33 -4 -76q-27 -254 -262 -332q148 -61 162 -295l20 -389h-280l-17 367q-3 64 -17 104t-42 60.5t-60.5 27t-84.5 6.5h-195l-59 -565h-281zM498 788h254q197 0 213 185q6 55 6 84q0 70 -43 111.5t-131 41.5h-256z" />
<glyph unicode="S" horiz-adv-x="1175" d="M115 358q0 -171 126 -274.5t337 -103.5q230 0 389 112.5t174 292.5q4 45 4 66q0 68 -22.5 123.5t-61 93.5t-88.5 69t-105 53t-110 41.5t-105 40t-88 42.5q-37 23 -59 55q-21 31 -21 68q0 16 2 32q8 75 69 118.5t161 43.5q95 0 151 -47t56 -131q0 -21 -13 -131h267 q14 119 14 153q0 172 -120.5 275.5t-330.5 103.5q-228 0 -371.5 -103t-162.5 -282q-4 -43 -4 -63v-6q-1 -64 21 -118q22 -56 60.5 -96t87.5 -73t104 -57t109.5 -46t104 -43.5t88 -44.5t60.5 -53.5t22 -67.5v-30q-6 -79 -77 -123.5t-175 -44.5q-100 0 -163.5 45t-63.5 133 q0 20 12 131h-266q-12 -127 -12 -154z" />
<glyph unicode="T" horiz-adv-x="999" d="M174 1210l23 224h909l-25 -224h-311l-127 -1210h-281l127 1210h-315z" />
<glyph unicode="U" horiz-adv-x="1282" d="M168 358q0 50 111 1076h280q-110 -1015 -110 -1055q0 -89 58 -132.5t157 -43.5q104 0 174 51t80 152l108 1028h281l-109 -1028q-22 -189 -177 -307.5t-382 -118.5q-212 0 -341.5 104.5t-129.5 273.5z" />
<glyph unicode="V" d="M166 1434h297l194 -1094l428 1094h295l-626 -1444h-281z" />
<glyph unicode="W" horiz-adv-x="1816" d="M170 1434h295l113 -1039l346 1039h288l123 -1039l334 1039h283l-531 -1444h-282l-125 1009l-340 -1009h-281z" />
<glyph unicode="X" horiz-adv-x="1196" d="M-8 0l534 727l-372 707h303l243 -480l342 480h306l-525 -707l383 -727h-305l-252 498l-354 -498h-303z" />
<glyph unicode="Y" horiz-adv-x="1208" d="M152 1434h294l238 -646l385 646h297l-569 -899l-58 -535h-280l57 535z" />
<glyph unicode="Z" horiz-adv-x="1097" d="M59 0l23 223l747 987h-622l24 224h947l-23 -224l-747 -987h653l-25 -223h-977z" />
<glyph unicode="[" horiz-adv-x="667" d="M106 -307l216 2048h473l-17 -166h-280l-179 -1716h279l-18 -166h-474z" />
<glyph unicode="\" horiz-adv-x="1009" d="M197 1434h141l627 -1434h-142z" />
<glyph unicode="]" horiz-adv-x="667" d="M23 -307l18 166h278l179 1716h-277l17 166h473l-215 -2048h-473z" />
<glyph unicode="^" horiz-adv-x="1019" d="M266 594l234 287h207l170 -287h-203l-86 151l-119 -151h-203z" />
<glyph unicode="_" horiz-adv-x="935" d="M94 -250l21 209h696l-20 -209h-697z" />
<glyph unicode="`" horiz-adv-x="813" d="M354 1413h224l147 -287h-186z" />
<glyph unicode="a" horiz-adv-x="1054" d="M109 252q0 -54 16 -101t49 -86t91 -62t134 -23q26 0 56.5 5t76 19.5t92.5 49t83 85.5l14 -139h223l109 1024h-224l-45 -135q-32 59 -86 96t-98.5 48t-87.5 11q-84 0 -151 -27.5t-108.5 -73.5t-65.5 -99.5t-29 -112.5q-49 -453 -49 -479zM381 313q0 23 39 375 q6 66 51.5 111t118.5 45q75 0 117.5 -45.5t42.5 -116.5q0 -20 -33 -311q-9 -84 -61.5 -137.5t-135.5 -53.5q-68 0 -103.5 37t-35.5 96z" />
<glyph unicode="b" horiz-adv-x="1060" d="M111 0h223l43 135q32 -59 86.5 -96t99.5 -48t88 -11q84 0 151 27.5t108.5 73.5t65.5 99.5t30 112.5q47 455 47 477q0 54 -15.5 101t-48.5 87t-90.5 63t-134.5 23q-68 0 -149 -32.5t-144 -108.5l61 572h-266zM414 342q0 35 32 311q9 85 61 138t134 53q69 0 104 -38t35 -99 q0 -25 -37 -371q-8 -67 -53.5 -111.5t-118.5 -44.5q-75 0 -116 44.5t-41 117.5z" />
<glyph unicode="c" horiz-adv-x="909" d="M113 291q0 35 39 381q40 372 454 372q176 0 357 -61l-54 -201q-85 33 -142 47.5t-126 14.5q-205 0 -227 -201q-29 -270 -29 -299q0 -164 186 -164q69 0 130.5 15t152.5 47l10 -201q-195 -61 -370 -61q-179 0 -280 75t-101 236z" />
<glyph unicode="d" horiz-adv-x="1060" d="M115 252q0 35 49 479q6 59 30 112.5t65 99.5t107.5 73.5t149.5 27.5q69 0 142 -32.5t120 -108.5l62 572h266l-156 -1475h-223l-14 135q-66 -85 -151.5 -120t-158.5 -35q-75 0 -132.5 23t-90.5 62t-49 86t-16 101zM387 313q0 -59 35.5 -96t103.5 -37q83 0 135.5 53.5 t61.5 137.5q33 289 33 311q0 71 -43.5 116.5t-116.5 45.5q-74 0 -119 -44.5t-51 -111.5q-39 -346 -39 -375z" />
<glyph unicode="e" horiz-adv-x="995" d="M115 305q0 47 37 369q21 183 146.5 276.5t324.5 93.5q172 0 269 -76t97 -231q0 -157 -100.5 -237t-313.5 -80h-186q-6 -74 -6 -94q0 -146 195 -146q73 0 166 17t171 45l11 -201q-190 -61 -414 -61q-181 0 -289 80t-108 245zM410 592h141q201 0 201 131q0 60 -39.5 93.5 t-110.5 33.5q-76 0 -125 -44t-57 -118z" />
<glyph unicode="f" horiz-adv-x="667" d="M121 -410h266l129 1254h207l20 180h-206l14 154q6 59 34.5 87.5t88.5 28.5q34 0 92 -12l37 193q-106 20 -199 20q-144 0 -222 -67.5t-93 -221.5l-19 -182h-114l-19 -180h113z" />
<glyph unicode="g" horiz-adv-x="1058" d="M66 -369q185 -61 389 -61q76 0 142.5 13t127 42t105 73t75 110t39.5 149l113 1067h-223l-43 -135q-32 59 -87 96t-100 48t-88 11q-84 0 -151 -27.5t-108 -73.5t-65 -99.5t-30 -112.5q-43 -403 -43 -438q0 -54 16 -101t49 -86.5t90.5 -62.5t133.5 -23q68 0 148 33t142 109 l-20 -205q-6 -54 -27 -92t-55 -57.5t-72 -28t-86 -8.5q-161 0 -319 61zM389 354q0 29 35 334q8 67 52.5 111.5t117.5 44.5q75 0 117.5 -45.5t42.5 -116.5q0 -20 -29 -270q-9 -84 -61.5 -137.5t-135.5 -53.5q-68 0 -103.5 37t-35.5 96z" />
<glyph unicode="h" horiz-adv-x="1079" d="M111 0h266l69 653q8 84 60 137.5t135 53.5q69 0 104 -38t35 -99q0 -40 -71 -707h266q78 729 78 770q0 54 -15.5 101t-48.5 87t-90.5 63t-134.5 23q-68 0 -150 -33.5t-143 -109.5l61 574h-266z" />
<glyph unicode="i" horiz-adv-x="487" d="M111 0h266l108 1024h-266zM231 1159h267l32 289h-266z" />
<glyph unicode="j" horiz-adv-x="487" d="M-154 -410q103 -20 199 -20q144 0 222 67.5t95 221.5l123 1165h-266l-121 -1137q-6 -59 -34.5 -87.5t-88.5 -28.5q-40 0 -90 12zM231 1159h267l32 289h-266z" />
<glyph unicode="k" horiz-adv-x="1085" d="M111 0l155 1475h266l-96 -904l443 453h305l-490 -487l400 -537h-322l-346 471l-49 -471h-266z" />
<glyph unicode="l" horiz-adv-x="487" d="M111 0h266l155 1475h-266z" />
<glyph unicode="m" horiz-adv-x="1677" d="M111 0l108 1024h223l13 -135q44 59 107 96t111 48t91 11q113 0 180.5 -49t91.5 -129q34 53 80.5 90.5t93.5 55t84 25t68 7.5q77 0 134.5 -23t90.5 -63t48.5 -87t15.5 -101q0 -41 -80 -770h-266q73 667 73 707q0 60 -35.5 98.5t-103.5 38.5q-82 0 -135 -53.5t-62 -135.5 l-67 -655h-266q71 667 71 707q0 61 -35 99t-104 38q-83 0 -135 -53.5t-60 -137.5l-69 -653h-266z" />
<glyph unicode="n" horiz-adv-x="1079" d="M111 0h266l69 653q8 84 60 137.5t135 53.5q69 0 104 -38t35 -99q0 -40 -71 -707h266q78 729 78 770q0 54 -15.5 101t-48.5 87t-90.5 63t-134.5 23q-43 0 -91 -11t-111 -48t-107 -96l-13 135h-223z" />
<glyph unicode="o" horiz-adv-x="1024" d="M115 299q0 41 37 375q20 183 146 276.5t325 93.5q184 0 289.5 -80.5t105.5 -240.5q0 -41 -37 -373q-20 -183 -146 -276.5t-325 -93.5q-184 0 -289.5 80.5t-105.5 238.5zM381 313q0 -66 39 -102.5t110 -36.5q76 0 125.5 44t57.5 118q39 344 39 375q0 66 -39.5 102.5 t-110.5 36.5q-76 0 -125 -44t-57 -118q-39 -344 -39 -375z" />
<glyph unicode="p" horiz-adv-x="1060" d="M68 -410l151 1434h223l13 -135q44 59 107 96t111 48t91 11q77 0 134.5 -23t90.5 -63t48.5 -87t15.5 -101q0 -35 -47 -477q-6 -59 -30 -112.5t-65.5 -99.5t-108.5 -73.5t-151 -27.5q-68 0 -141.5 32.5t-120.5 108.5l-55 -531h-266zM414 342q0 -73 41 -117.5t116 -44.5 q73 0 118.5 44.5t53.5 111.5q37 340 37 371q0 61 -35 99t-104 38q-82 0 -134 -53t-61 -138q-32 -274 -32 -311z" />
<glyph unicode="q" horiz-adv-x="1060" d="M115 252q0 -54 16 -101t49 -86t90.5 -62t132.5 -23q69 0 149.5 32.5t143.5 108.5l-55 -531h266l152 1434h-223l-45 -135q-32 59 -86.5 96t-99.5 48t-89 11q-83 0 -149.5 -27.5t-107.5 -73.5t-65 -99.5t-30 -112.5q-49 -444 -49 -479zM387 313q0 29 39 375q6 67 51 111.5 t119 44.5q73 0 116.5 -45.5t43.5 -116.5q0 -20 -33 -311q-9 -84 -61.5 -137.5t-135.5 -53.5q-68 0 -103.5 37t-35.5 96z" />
<glyph unicode="r" horiz-adv-x="694" d="M111 0h266l63 610q9 83 84 129.5t211 46.5l29 258q-31 0 -70 -10t-85.5 -32t-90 -66.5t-69.5 -104.5l-7 193h-223z" />
<glyph unicode="s" horiz-adv-x="956" d="M63 41l62 201q73 -28 174.5 -48t175.5 -20q90 0 133.5 31t48.5 78v22q0 27 -22 47t-58.5 32t-82.5 25.5t-94.5 25.5t-94.5 34t-82 50q-35 28 -57 74q-21 44 -21 100v5q0 14 5 60q16 127 130 206.5t320 79.5q190 0 371 -61l-53 -201q-176 68 -324 68q-80 0 -122 -25 t-50 -65v-19q0 -35 28 -59t73 -38t99.5 -27t109 -31.5t100 -45.5t74 -75.5t28.5 -114.5q0 -26 -4 -67q-17 -138 -141 -220.5t-320 -82.5q-221 0 -406 61z" />
<glyph unicode="t" horiz-adv-x="677" d="M133 844l21 180h112l21 205h266l-21 -205h201l-20 -180h-201q-57 -539 -57 -574q0 -46 22 -68t76 -22q33 0 92 13v-193q-111 -20 -205 -20q-130 0 -194 53.5t-64 173.5q0 34 64 637h-113z" />
<glyph unicode="u" horiz-adv-x="1079" d="M135 252q0 -54 16 -101t49 -86t90.5 -62t133.5 -23q43 0 90.5 11t110 48t106.5 96l14 -135h224l108 1024h-266l-70 -653q-8 -84 -60.5 -137.5t-133.5 -53.5q-68 0 -103.5 37t-35.5 96q0 42 73 711h-266q-80 -731 -80 -772z" />
<glyph unicode="v" horiz-adv-x="974" d="M123 1024h268l131 -735l287 735h258l-455 -1034h-260z" />
<glyph unicode="w" horiz-adv-x="1421" d="M131 1024h260l70 -741l223 741h266l68 -743l231 743h258l-370 -1034h-291l-60 731l-217 -731h-286z" />
<glyph unicode="x" horiz-adv-x="958" d="M8 0l391 512l-282 512h266l176 -315l242 315h260l-399 -512l290 -512h-260l-176 315l-242 -315h-266z" />
<glyph unicode="y" horiz-adv-x="970" d="M-43 -410l41 201q25 -8 71.5 -14t67.5 -6q85 0 125.5 29.5t77.5 107.5l39 82h-29l-229 1034h268l141 -727l277 727h258l-481 -1092q-49 -112 -96 -183t-102 -110.5t-112 -54t-137 -14.5q-74 0 -180 20z" />
<glyph unicode="z" horiz-adv-x="917" d="M51 0l21 180l571 664h-475l20 180h764l-20 -180l-572 -664h523l-19 -180h-813z" />
<glyph unicode="{" horiz-adv-x="626" d="M127 631q75 -10 102 -37.5t27 -83.5q0 -68 -37 -284t-37 -294q0 -47 11 -84.5t28.5 -62.5t46.5 -42.5t56 -27t67.5 -15t71.5 -6.5t76 -1l18 166q-93 0 -135.5 30t-42.5 103q0 54 36 250.5t36 279.5q0 86 -41.5 127.5t-128.5 65.5v4q51 14 85 29.5t64 43t47 69.5t23 102 q7 63 13 224t13 224q10 94 63 129t148 35l17 166q-48 0 -83 -1.5t-79 -8.5t-75 -19t-64.5 -34.5t-55.5 -53.5t-38.5 -77t-22.5 -105q-6 -62 -12.5 -214.5t-12.5 -213.5q-4 -41 -7 -60.5t-10 -47t-17 -40.5t-27.5 -28t-43 -22.5t-61.5 -12.5z" />
<glyph unicode="|" horiz-adv-x="421" d="M106 -307l216 2048h141l-215 -2048h-142z" />
<glyph unicode="}" horiz-adv-x="626" d="M31 -307q48 0 83 1.5t79 8.5t75.5 19t65 34.5t55.5 53.5t39 77t23 105q6 62 12 214.5t12 213.5q4 33 5.5 46.5t5.5 38.5t8.5 35t13 26.5t19.5 24t27 17t37 14.5t48 9l18 172q-75 10 -102 37.5t-27 83.5q0 68 38 283.5t38 293.5q0 47 -11 84.5t-28.5 62.5t-46 42.5 t-56 27.5t-68 15t-72 6.5t-76.5 1.5l-17 -166q93 0 135 -30t42 -103q0 -54 -35 -251t-35 -280q0 -86 41.5 -127t128.5 -65v-4q-104 -27 -156 -78t-63 -166q-7 -67 -14 -228.5t-13 -219.5q-11 -94 -64.5 -129t-148.5 -35z" />
<glyph unicode="~" horiz-adv-x="858" d="M172 612q26 240 207 240q44 0 91.5 -19t86 -38t61.5 -19q67 0 76 76h152q-29 -240 -209 -240q-44 0 -91.5 19t-86.5 38t-62 19q-64 0 -73 -76h-152z" />
<glyph unicode="&#xa1;" horiz-adv-x="518" d="M76 -410h280l31 275l33 737h-195l-119 -737zM199 766l28 258h281l-27 -258h-282z" />
<glyph unicode="&#xa2;" horiz-adv-x="960" d="M125 291q0 35 39 381q41 339 383 368l18 189h142l-19 -187q61 -4 123.5 -16t87 -19.5t76.5 -23.5l-53 -201q-84 32 -142 47t-127 15q-95 0 -155 -48t-70 -153q-31 -276 -31 -299q0 -86 50.5 -125t136.5 -39q69 0 130 14.5t152 47.5l11 -201q-56 -16 -82.5 -23.5 t-92 -19.5t-127.5 -16l-20 -187h-141l20 189q-146 13 -227.5 88t-81.5 219z" />
<glyph unicode="&#xa3;" horiz-adv-x="1273" d="M98 0l25 223h82l28 277h-83l22 221h86l37 348q17 179 160.5 282t371.5 103q211 0 331 -103t120 -276q0 -30 -14 -153h-267q15 119 15 131q0 83 -56.5 130.5t-150.5 47.5q-100 0 -161 -43.5t-69 -118.5l-36 -348h313l-25 -221h-313l-29 -277h721l-24 -223h-1084z" />
<glyph unicode="&#xa4;" horiz-adv-x="870" d="M145 444q0 22 7 88q21 197 174 281l-60 119h21l55 -111q85 39 182 39q101 0 174 -41l80 113h21l-86 -119q116 -72 116 -231q0 -31 -6 -90q-18 -198 -174 -281l62 -119h-21l-57 111q-82 -39 -182 -39q-98 0 -172 39l-80 -111h-21l84 121q-117 69 -117 231zM166 444 q0 -58 16.5 -103.5t43.5 -74.5t64.5 -48t77.5 -26.5t85 -7.5q62 0 117 15.5t105.5 49.5t84.5 96t43 147q6 57 6 88q0 58 -16.5 103.5t-43.5 74.5t-64.5 48t-77.5 26.5t-85 7.5q-62 0 -117 -15.5t-105.5 -49.5t-84.5 -96t-43 -147q-6 -57 -6 -88z" />
<glyph unicode="&#xa5;" horiz-adv-x="1308" d="M201 1434h295l237 -643l385 643h297l-522 -822h205l-23 -209h-244l-43 -403h-280l43 403h-246l23 209h207z" />
<glyph unicode="&#xa6;" horiz-adv-x="425" d="M109 -307l98 921h141l-98 -921h-141zM227 819l97 922h141l-96 -922h-142z" />
<glyph unicode="&#xa7;" horiz-adv-x="1208" d="M154 358q0 33 8 111h266q-8 -68 -8 -84q0 -84 57 -132t152 -48q98 0 158.5 44.5t68.5 119.5l21 186h-709l14 135h989l-34 -321q-19 -180 -162 -283.5t-371 -103.5q-210 0 -330 102.5t-120 273.5zM188 750l35 319q17 179 161 282t372 103q211 0 330.5 -103t119.5 -276 q0 -38 -10 -110h-266q10 76 10 88q0 83 -56.5 130.5t-150.5 47.5q-99 0 -160 -43.5t-69 -118.5l-21 -184h709l-14 -135h-990z" />
<glyph unicode="&#xa8;" horiz-adv-x="1122" d="M328 1159h266l31 289h-267zM772 1159h266l31 289h-266z" />
<glyph unicode="&#xa9;" horiz-adv-x="1597" d="M154 629q0 68 14 143t45 155.5t76 156t111 143t145.5 118t184 80t222.5 29.5q187 0 334.5 -85.5t228 -234.5t80.5 -333q0 -96 -27.5 -202.5t-91 -218t-153 -199.5t-226.5 -144.5t-300 -56.5q-141 0 -261 49t-203.5 134.5t-131 206t-47.5 259.5zM211 631q0 -180 78 -317 t212 -208t302 -71q151 0 277.5 52t209 134t140.5 185.5t83 204t25 192.5q0 179 -78 315t-212 207.5t-302 71.5q-152 0 -279 -52.5t-209.5 -134.5t-140 -185.5t-82 -203t-24.5 -190.5zM543 502q0 -102 78.5 -165t205.5 -63q137 0 230.5 71t105.5 185l6 64h-161l-7 -64 q-6 -60 -50.5 -90t-108.5 -30q-59 0 -93 25t-34 77q0 14 41 391q6 55 48 88t103 33q57 0 95 -30.5t38 -80.5q0 -28 -6 -73h162q8 63 8 88q0 104 -77.5 167.5t-206.5 63.5q-137 0 -230.5 -71t-105.5 -185q-41 -375 -41 -401z" />
<glyph unicode="&#xaa;" horiz-adv-x="765" d="M180 614l13 121h520l-13 -121h-520zM223 1010q-5 -48 8.5 -89t55.5 -70.5t108 -29.5q41 0 94 21t91 67l8 -82h135l65 621h-135l-26 -80q-27 51 -74 71.5t-90 20.5q-97 0 -150.5 -55.5t-62.5 -132.5zM387 1034l23 213q3 39 29.5 64.5t70.5 25.5q49 0 73.5 -31t18.5 -81 l-16 -168q-6 -51 -36.5 -82t-78.5 -31q-45 0 -67 25.5t-17 64.5z" />
<glyph unicode="&#xab;" horiz-adv-x="1255" d="M100 414l21 194l575 389l-22 -225l-312 -258v-4l256 -258l-24 -225zM664 414l20 194l578 389l-25 -225l-311 -258v-4l256 -258l-23 -225z" />
<glyph unicode="&#xac;" horiz-adv-x="1038" d="M180 623l23 208h798l-43 -403h-280l20 195h-518z" />
<glyph unicode="&#xad;" horiz-adv-x="909" d="M150 408l22 208h696l-22 -208h-696z" />
<glyph unicode="&#xae;" horiz-adv-x="1597" d="M154 629q0 68 14 143t45 155.5t76 156t111 143t145.5 118t184 80t222.5 29.5q187 0 334.5 -85.5t228 -234.5t80.5 -333q0 -96 -27.5 -202.5t-91 -218t-153 -199.5t-226.5 -144.5t-300 -56.5q-141 0 -261 49t-203.5 134.5t-131 206t-47.5 259.5zM211 631q0 -180 78 -317 t212 -208t302 -71q151 0 277.5 52t209 134t140.5 185.5t83 204t25 192.5q0 179 -78 315t-212 207.5t-302 71.5q-152 0 -279 -52.5t-209.5 -134.5t-140 -185.5t-82 -203t-24.5 -190.5zM549 285l90 860h340q121 0 182.5 -55.5t61.5 -147.5q0 -22 -4 -49q-12 -150 -160 -197 q92 -36 100 -178l12 -233h-170l-10 221q-3 72 -31.5 95.5t-91.5 23.5h-112l-35 -340h-172zM770 760h150q60 0 89.5 27t37.5 81q4 31 4 50q0 42 -26 67t-79 25h-149z" />
<glyph unicode="&#xaf;" horiz-adv-x="1107" d="M328 1165l16 164h698l-16 -164h-698z" />
<glyph unicode="&#xb0;" horiz-adv-x="544" d="M213 1243q0 45 22 91.5t72.5 83t118.5 36.5q72 0 121 -49t49 -121q0 -29 -12.5 -63t-36.5 -68.5t-66.5 -57t-95.5 -22.5q-75 0 -123.5 48.5t-48.5 121.5zM307 1251q0 -39 23.5 -63.5t62.5 -24.5q53 0 81 37t28 78q0 37 -24 60.5t-62 23.5q-54 0 -81.5 -35t-27.5 -76z" />
<glyph unicode="&#xb1;" horiz-adv-x="929" d="M131 285l23 207h725l-23 -207h-725zM186 803l23 209h258l27 258h208l-26 -258h258l-23 -209h-258l-26 -258h-209l26 258h-258z" />
<glyph unicode="&#xb2;" horiz-adv-x="743" d="M147 834l15 139q7 68 45 124t89.5 90.5t112 68t112.5 57.5t90.5 57.5t47.5 69.5q3 12 3 22q0 50 -35.5 79.5t-91.5 29.5q-61 0 -102.5 -33t-45.5 -88l-6 -45h-162l6 45q11 115 98.5 185.5t223.5 70.5q129 0 208 -63.5t79 -167.5q0 -10 -3 -37q-7 -67 -46.5 -122.5 t-93 -89.5t-115.5 -66.5t-114.5 -56.5t-89 -56.5t-40.5 -69.5v-8h448l-14 -135h-619z" />
<glyph unicode="&#xb3;" horiz-adv-x="739" d="M168 1051q0 19 6 71h170q-4 -47 -4 -61q0 -49 35 -77t92 -28q60 0 101 30.5t50 86.5v33q0 47 -34.5 74.5t-89.5 27.5h-62l14 135h62q60 0 102 31.5t45 81.5v17q0 48 -34 73t-91 25q-59 0 -100 -33t-45 -88l-6 -45h-162l6 45q11 115 98.5 185.5t223.5 70.5 q127 0 198.5 -54.5t71.5 -148.5q0 -21 -2 -35q-18 -133 -137 -188q117 -57 117 -172q0 -10 -5 -49q-13 -111 -104.5 -174.5t-230.5 -63.5q-127 0 -206 63.5t-79 166.5z" />
<glyph unicode="&#xb4;" horiz-adv-x="813" d="M324 1126h186l246 287h-221z" />
<glyph unicode="&#xb6;" horiz-adv-x="1318" d="M154 379q0 37 63 629q20 190 169.5 308t375.5 118h133l-152 -1434h-133q-210 0 -333 103.5t-123 275.5zM840 0l151 1434h400l-19 -166h-205l-114 -1102h202l-16 -166h-399z" />
<glyph unicode="&#xb7;" horiz-adv-x="477" d="M162 399h237l29 258h-238z" />
<glyph unicode="&#xb8;" horiz-adv-x="872" d="M160 -430l43 106q84 -32 170 -32q94 0 100 75v25q0 30 -20.5 43.5t-69.5 13.5h-70l23 211h106l-8 -96h19q90 0 139 -37t49 -108q0 -38 -4 -50q-8 -81 -73 -136.5t-175 -55.5q-57 0 -126.5 13t-102.5 28z" />
<glyph unicode="&#xb9;" horiz-adv-x="616" d="M147 834l15 135h180l61 590h-180l15 135h350l-76 -725h178l-14 -135h-529z" />
<glyph unicode="&#xba;" horiz-adv-x="772" d="M190 614l13 121h520l-12 -121h-521zM233 1008q0 18 23 223q12 111 87.5 167t195.5 56q112 0 175.5 -48t63.5 -144q0 -36 -22 -224q-12 -111 -88 -167t-197 -56q-110 0 -174 49t-64 144zM395 1018q0 -39 23.5 -61.5t64.5 -22.5q45 0 74.5 26t34.5 68q22 198 22 227 q0 37 -23.5 58.5t-64.5 21.5q-45 0 -74 -26t-34 -68q-23 -201 -23 -223z" />
<glyph unicode="&#xbb;" horiz-adv-x="1255" d="M104 27l574 387l22 194l-493 389l-25 -225l254 -258v-4l-309 -258zM668 27l575 387l21 194l-494 389l-25 -225l256 -258v-4l-311 -258z" />
<glyph unicode="&#xbc;" horiz-adv-x="1687" d="M119 573l14 136h180l64 589h-180l14 136h350l-78 -725h181l-17 -136h-528zM342 0h143l1082 1434h-144zM971 203l16 135l457 522h172l-55 -522h127l-17 -135h-125l-20 -203h-172l20 203h-403zM1171 338h218l30 278z" />
<glyph unicode="&#xbd;" horiz-adv-x="1730" d="M119 573l14 136h180l64 589h-180l14 136h350l-78 -725h181l-17 -136h-528zM342 0h143l1082 1434h-144zM1047 0l14 139q6 52 29 96.5t57 76t76 60.5t85.5 50t86 43t76.5 42t58 45.5t30 53.5q2 8 2 23q0 50 -35 79t-92 29q-60 0 -101 -33t-47 -88l-4 -45h-164l6 45 q11 115 99 185.5t225 70.5q129 0 207 -63.5t78 -167.5q0 -19 -2 -37q-9 -80 -62 -142t-123 -100t-139.5 -70t-119.5 -69t-54 -80l-2 -8h448l-14 -135h-618z" />
<glyph unicode="&#xbe;" horiz-adv-x="1810" d="M141 791q0 19 6 71h170q-4 -47 -4 -61q0 -49 35 -77t92 -28q60 0 101.5 30.5t50.5 86.5v33q0 47 -35 74.5t-90 27.5h-61l14 135h61q60 0 102.5 31.5t45.5 81.5v16q0 48 -34 73.5t-91 25.5q-59 0 -100.5 -33t-45.5 -88l-6 -45h-162l7 45q11 115 98 185.5t223 70.5 q127 0 198.5 -54.5t71.5 -148.5q0 -21 -2 -35q-18 -133 -137 -188q117 -57 117 -172q0 -18 -4 -49q-13 -111 -105 -174.5t-231 -63.5q-127 0 -206 63.5t-79 166.5zM465 0h143l1082 1434h-144zM1094 203l16 135l457 522h172l-56 -522h127l-16 -135h-125l-20 -203h-172l20 203 h-403zM1294 338h217l31 278z" />
<glyph unicode="&#xbf;" horiz-adv-x="1138" d="M70 -47q0 31 6 94q17 159 134 271t296 143l43 170h207l-39 -381h-105q-102 0 -174 -55t-82 -148q-6 -71 -6 -74q0 -85 58.5 -132.5t154.5 -47.5q102 0 170.5 54.5t77.5 148.5l10 76h266l-10 -76q-19 -191 -165 -308.5t-371 -117.5q-214 0 -342.5 105t-128.5 278zM526 766 l27 258h281l-27 -258h-281z" />
<glyph unicode="&#xc0;" d="M8 0l625 1444h280l310 -1444h-297l-62 336h-428l-133 -336h-295zM506 1823h223l148 -287h-187zM524 557h299l-96 514z" />
<glyph unicode="&#xc1;" d="M8 0l625 1444h280l310 -1444h-297l-62 336h-428l-133 -336h-295zM524 557h299l-96 514zM684 1536h186l246 287h-221z" />
<glyph unicode="&#xc2;" d="M8 0l625 1444h280l310 -1444h-297l-62 336h-428l-133 -336h-295zM475 1536l234 287h206l170 -287h-202l-88 152l-117 -152h-203zM524 557h299l-96 514z" />
<glyph unicode="&#xc3;" d="M8 0l625 1444h280l310 -1444h-297l-62 336h-428l-133 -336h-295zM459 1542q23 240 207 240q56 0 135.5 -37t103.5 -37q65 0 74 74h151q-26 -240 -206 -240q-44 0 -92 19t-87.5 38t-62.5 19q-66 0 -72 -76h-151zM524 557h299l-96 514z" />
<glyph unicode="&#xc4;" d="M8 0l625 1444h280l310 -1444h-297l-62 336h-428l-133 -336h-295zM430 1569h266l31 289h-266zM524 557h299l-96 514zM874 1569h267l30 289h-266z" />
<glyph unicode="&#xc5;" d="M8 0l625 1444h280l310 -1444h-297l-62 336h-428l-133 -336h-295zM524 557h299l-96 514zM543 1675q0 39 12 73t40 66t85 51t137 19q234 0 234 -155q0 -43 -12.5 -78.5t-41.5 -67t-84.5 -49.5t-134.5 -18q-235 0 -235 159zM696 1688q0 -38 22.5 -59t67.5 -21q33 0 56.5 11 t34.5 29t15.5 34t4.5 32q0 36 -22.5 57t-67.5 21q-34 0 -57.5 -11t-34.5 -29t-15 -33.5t-4 -30.5z" />
<glyph unicode="&#xc6;" horiz-adv-x="1730" d="M0 0l758 1434h1057l-23 -224h-633l-39 -372h510l-22 -222h-510l-41 -393h631l-25 -223h-911l34 336h-315l-174 -336h-297zM584 557h227l57 549z" />
<glyph unicode="&#xc7;" horiz-adv-x="1212" d="M141 358q0 52 70 670q20 189 175 307.5t382 118.5q214 0 342.5 -105t128.5 -278q0 -28 -14 -149h-267q15 107 15 127q0 84 -65.5 133t-162.5 49q-102 0 -173 -55t-80 -148q-70 -625 -70 -649q0 -88 59 -132t156 -44q107 0 182.5 51.5t85.5 151.5l10 106h267l-11 -106 q-19 -178 -158 -294t-347 -130l-7 -78h19q90 0 139 -37.5t49 -108.5q0 -37 -4 -49q-8 -81 -73 -136.5t-175 -55.5q-57 0 -126.5 13t-102.5 28l43 106q86 -33 170 -33q94 0 100 76v25q0 30 -20.5 43.5t-69.5 13.5h-69l20 193q-190 14 -304 116t-114 260z" />
<glyph unicode="&#xc8;" horiz-adv-x="1112" d="M133 0l152 1434h911l-22 -224h-633l-39 -372h512l-25 -222h-510l-41 -393h631l-25 -223h-911zM465 1823h223l148 -287h-187z" />
<glyph unicode="&#xc9;" horiz-adv-x="1112" d="M133 0l152 1434h911l-22 -224h-633l-39 -372h512l-25 -222h-510l-41 -393h631l-25 -223h-911zM643 1536h186l246 287h-221z" />
<glyph unicode="&#xca;" horiz-adv-x="1112" d="M133 0l152 1434h911l-22 -224h-633l-39 -372h512l-25 -222h-510l-41 -393h631l-25 -223h-911zM434 1536l234 287h206l170 -287h-202l-88 152l-117 -152h-203z" />
<glyph unicode="&#xcb;" horiz-adv-x="1112" d="M133 0l152 1434h911l-22 -224h-633l-39 -372h512l-25 -222h-510l-41 -393h631l-25 -223h-911zM387 1569h266l31 289h-266zM831 1569h267l30 289h-266z" />
<glyph unicode="&#xcc;" horiz-adv-x="548" d="M133 0l152 1434h280l-151 -1434h-281zM162 1823h223l147 -287h-186z" />
<glyph unicode="&#xcd;" horiz-adv-x="548" d="M133 0l152 1434h280l-151 -1434h-281zM338 1536h186l246 287h-221z" />
<glyph unicode="&#xce;" horiz-adv-x="548" d="M131 1536l234 287h206l170 -287h-202l-88 152l-117 -152h-203zM133 0l152 1434h280l-151 -1434h-281z" />
<glyph unicode="&#xcf;" horiz-adv-x="548" d="M84 1569h266l31 289h-266zM133 0l152 1434h280l-151 -1434h-281zM528 1569h267l30 289h-266z" />
<glyph unicode="&#xd0;" horiz-adv-x="1288" d="M82 616l24 222h142l63 596h529q210 0 332 -103t122 -274q0 -51 -61 -631q-22 -190 -170.5 -308t-374.5 -118h-528l65 616h-143zM465 223h248q99 0 164 51t75 152q62 594 62 608q0 82 -54.5 129t-142.5 47h-250l-39 -372h183l-25 -222h-180z" />
<glyph unicode="&#xd1;" horiz-adv-x="1357" d="M133 0l152 1434h297l436 -940q9 147 29 350l61 590h266l-151 -1434h-281l-453 944q-7 -160 -26 -354l-64 -590h-266zM518 1542q23 240 207 240q56 0 136 -37t104 -37q64 0 73 74h152q-26 -240 -207 -240q-44 0 -92 19t-87.5 38t-62.5 19q-65 0 -71 -76h-152z" />
<glyph unicode="&#xd2;" horiz-adv-x="1230" d="M141 358q0 -169 129.5 -273.5t341.5 -104.5q227 0 383 118.5t176 307.5q68 625 68 665q0 173 -128.5 278t-342.5 105q-227 0 -382 -118.5t-175 -307.5q-70 -618 -70 -670zM424 383q0 39 68 645q9 93 80 148t173 55q96 0 154.5 -47.5t58.5 -132.5q0 -48 -67 -645 q-9 -93 -80.5 -148t-173.5 -55q-96 0 -154.5 47.5t-58.5 132.5zM502 1823h223l147 -287h-186z" />
<glyph unicode="&#xd3;" horiz-adv-x="1230" d="M141 358q0 -169 129.5 -273.5t341.5 -104.5q227 0 383 118.5t176 307.5q68 625 68 665q0 173 -128.5 278t-342.5 105q-227 0 -382 -118.5t-175 -307.5q-70 -618 -70 -670zM424 383q0 39 68 645q9 93 80 148t173 55q96 0 154.5 -47.5t58.5 -132.5q0 -48 -67 -645 q-9 -93 -80.5 -148t-173.5 -55q-96 0 -154.5 47.5t-58.5 132.5zM680 1536h186l246 287h-221z" />
<glyph unicode="&#xd4;" horiz-adv-x="1230" d="M141 358q0 -169 129.5 -273.5t341.5 -104.5q227 0 383 118.5t176 307.5q68 625 68 665q0 173 -128.5 278t-342.5 105q-227 0 -382 -118.5t-175 -307.5q-70 -618 -70 -670zM424 383q0 39 68 645q9 93 80 148t173 55q96 0 154.5 -47.5t58.5 -132.5q0 -48 -67 -645 q-9 -93 -80.5 -148t-173.5 -55q-96 0 -154.5 47.5t-58.5 132.5zM471 1536l234 287h206l170 -287h-202l-88 152l-117 -152h-203z" />
<glyph unicode="&#xd5;" horiz-adv-x="1230" d="M141 358q0 -169 129.5 -273.5t341.5 -104.5q227 0 383 118.5t176 307.5q68 625 68 665q0 173 -128.5 278t-342.5 105q-227 0 -382 -118.5t-175 -307.5q-70 -618 -70 -670zM424 383q0 39 68 645q9 93 80 148t173 55q96 0 154.5 -47.5t58.5 -132.5q0 -48 -67 -645 q-9 -93 -80.5 -148t-173.5 -55q-96 0 -154.5 47.5t-58.5 132.5zM455 1542q23 240 207 240q56 0 135.5 -37t103.5 -37q65 0 74 74h151q-26 -240 -206 -240q-44 0 -92 19t-87.5 38t-62.5 19q-66 0 -72 -76h-151z" />
<glyph unicode="&#xd6;" horiz-adv-x="1230" d="M141 358q0 -169 129.5 -273.5t341.5 -104.5q227 0 383 118.5t176 307.5q68 625 68 665q0 173 -128.5 278t-342.5 105q-227 0 -382 -118.5t-175 -307.5q-70 -618 -70 -670zM424 383q0 39 68 645q9 93 80 148t173 55q96 0 154.5 -47.5t58.5 -132.5q0 -48 -67 -645 q-9 -93 -80.5 -148t-173.5 -55q-96 0 -154.5 47.5t-58.5 132.5zM424 1569h266l31 289h-266zM868 1569h267l30 289h-266z" />
<glyph unicode="&#xd7;" horiz-adv-x="923" d="M133 494l258 233l-209 234l164 147l209 -234l258 234l131 -147l-258 -234l209 -235l-162 -146l-209 234l-258 -234z" />
<glyph unicode="&#xd8;" horiz-adv-x="1230" d="M111 -41l114 168q-84 100 -84 231q0 52 70 670q20 189 175 307.5t382 118.5q182 0 307 -80l68 101h141l-121 -179q76 -95 76 -225q0 -40 -68 -665q-20 -189 -176 -307.5t-383 -118.5q-172 0 -295 71l-63 -92h-143zM426 422l500 733q-57 76 -181 76q-102 0 -173 -55 t-80 -148q-62 -556 -66 -606zM465 268q56 -65 172 -65q102 0 173.5 55t80.5 148q56 510 63 583z" />
<glyph unicode="&#xd9;" horiz-adv-x="1282" d="M168 358q0 50 111 1076h280q-110 -1015 -110 -1055q0 -89 58 -132.5t157 -43.5q104 0 174 51t80 152l108 1028h281l-109 -1028q-22 -189 -177 -307.5t-382 -118.5q-212 0 -341.5 104.5t-129.5 273.5zM528 1823h224l147 -287h-186z" />
<glyph unicode="&#xda;" horiz-adv-x="1282" d="M168 358q0 50 111 1076h280q-110 -1015 -110 -1055q0 -89 58 -132.5t157 -43.5q104 0 174 51t80 152l108 1028h281l-109 -1028q-22 -189 -177 -307.5t-382 -118.5q-212 0 -341.5 104.5t-129.5 273.5zM705 1536h186l246 287h-222z" />
<glyph unicode="&#xdb;" horiz-adv-x="1282" d="M168 358q0 50 111 1076h280q-110 -1015 -110 -1055q0 -89 58 -132.5t157 -43.5q104 0 174 51t80 152l108 1028h281l-109 -1028q-22 -189 -177 -307.5t-382 -118.5q-212 0 -341.5 104.5t-129.5 273.5zM498 1536l233 287h207l170 -287h-203l-88 152l-117 -152h-202z" />
<glyph unicode="&#xdc;" horiz-adv-x="1282" d="M168 358q0 50 111 1076h280q-110 -1015 -110 -1055q0 -89 58 -132.5t157 -43.5q104 0 174 51t80 152l108 1028h281l-109 -1028q-22 -189 -177 -307.5t-382 -118.5q-212 0 -341.5 104.5t-129.5 273.5zM451 1569h266l31 289h-267zM895 1569h266l31 289h-266z" />
<glyph unicode="&#xdd;" horiz-adv-x="1208" d="M152 1434h294l238 -646l385 646h297l-569 -899l-58 -535h-280l57 535zM668 1536h186l246 287h-221z" />
<glyph unicode="&#xde;" horiz-adv-x="1183" d="M133 0l152 1434h280l-24 -240h225q210 0 332.5 -103.5t122.5 -273.5q0 -28 -11 -129q-19 -190 -168.5 -308t-375.5 -118h-224l-28 -262h-281zM465 483h225q98 0 163 51.5t77 153.5q10 84 10 107q0 82 -55 129t-144 47h-225z" />
<glyph unicode="&#xdf;" horiz-adv-x="1200" d="M137 844l19 180h114l11 100q18 183 145.5 277t331.5 94q190 0 295.5 -80t105.5 -239q0 -30 -10 -136q-19 -191 -182 -272q102 -34 162.5 -106.5t60.5 -182.5q0 -29 -6 -88q-20 -185 -152 -288t-332 -103h-192l22 223h179q203 0 223 183q6 41 6 63q0 79 -52 118.5 t-134 39.5h-181l25 223h76q81 0 140 41t69 129q12 113 12 141q0 65 -41 102t-115 37q-82 0 -132 -43.5t-58 -117.5l-119 -1139h-266l88 844h-113z" />
<glyph unicode="&#xe0;" horiz-adv-x="1054" d="M109 252q0 -54 16 -101t49 -86t91 -62t134 -23q26 0 56.5 5t76 19.5t92.5 49t83 85.5l14 -139h223l109 1024h-224l-45 -135q-32 59 -86 96t-98.5 48t-87.5 11q-84 0 -151 -27.5t-108.5 -73.5t-65.5 -99.5t-29 -112.5q-49 -453 -49 -479zM346 1413h223l148 -287h-187z M381 313q0 23 39 375q6 66 51.5 111t118.5 45q75 0 117.5 -45.5t42.5 -116.5q0 -20 -33 -311q-9 -84 -61.5 -137.5t-135.5 -53.5q-68 0 -103.5 37t-35.5 96z" />
<glyph unicode="&#xe1;" horiz-adv-x="1054" d="M109 252q0 -54 16 -101t49 -86t91 -62t134 -23q26 0 56.5 5t76 19.5t92.5 49t83 85.5l14 -139h223l109 1024h-224l-45 -135q-32 59 -86 96t-98.5 48t-87.5 11q-84 0 -151 -27.5t-108.5 -73.5t-65.5 -99.5t-29 -112.5q-49 -453 -49 -479zM381 313q0 23 39 375 q6 66 51.5 111t118.5 45q75 0 117.5 -45.5t42.5 -116.5q0 -20 -33 -311q-9 -84 -61.5 -137.5t-135.5 -53.5q-68 0 -103.5 37t-35.5 96zM522 1126h187l245 287h-221z" />
<glyph unicode="&#xe2;" horiz-adv-x="1054" d="M109 252q0 -54 16 -101t49 -86t91 -62t134 -23q26 0 56.5 5t76 19.5t92.5 49t83 85.5l14 -139h223l109 1024h-224l-45 -135q-32 59 -86 96t-98.5 48t-87.5 11q-84 0 -151 -27.5t-108.5 -73.5t-65.5 -99.5t-29 -112.5q-49 -453 -49 -479zM315 1126l234 287h207l170 -287 h-203l-88 152l-117 -152h-203zM381 313q0 23 39 375q6 66 51.5 111t118.5 45q75 0 117.5 -45.5t42.5 -116.5q0 -20 -33 -311q-9 -84 -61.5 -137.5t-135.5 -53.5q-68 0 -103.5 37t-35.5 96z" />
<glyph unicode="&#xe3;" horiz-adv-x="1054" d="M109 252q0 -54 16 -101t49 -86t91 -62t134 -23q26 0 56.5 5t76 19.5t92.5 49t83 85.5l14 -139h223l109 1024h-224l-45 -135q-32 59 -86 96t-98.5 48t-87.5 11q-84 0 -151 -27.5t-108.5 -73.5t-65.5 -99.5t-29 -112.5q-49 -453 -49 -479zM299 1133q23 239 207 239 q56 0 135.5 -37t103.5 -37q65 0 74 74h152q-26 -239 -207 -239q-56 0 -137 37.5t-105 37.5q-65 0 -71 -75h-152zM381 313q0 23 39 375q6 66 51.5 111t118.5 45q75 0 117.5 -45.5t42.5 -116.5q0 -20 -33 -311q-9 -84 -61.5 -137.5t-135.5 -53.5q-68 0 -103.5 37t-35.5 96z " />
<glyph unicode="&#xe4;" horiz-adv-x="1054" d="M109 252q0 -54 16 -101t49 -86t91 -62t134 -23q26 0 56.5 5t76 19.5t92.5 49t83 85.5l14 -139h223l109 1024h-224l-45 -135q-32 59 -86 96t-98.5 48t-87.5 11q-84 0 -151 -27.5t-108.5 -73.5t-65.5 -99.5t-29 -112.5q-49 -453 -49 -479zM268 1159h267l30 289h-266z M381 313q0 23 39 375q6 66 51.5 111t118.5 45q75 0 117.5 -45.5t42.5 -116.5q0 -20 -33 -311q-9 -84 -61.5 -137.5t-135.5 -53.5q-68 0 -103.5 37t-35.5 96zM713 1159h266l31 289h-267z" />
<glyph unicode="&#xe5;" horiz-adv-x="1054" d="M109 252q0 -54 16 -101t49 -86t91 -62t134 -23q26 0 56.5 5t76 19.5t92.5 49t83 85.5l14 -139h223l109 1024h-224l-45 -135q-32 59 -86 96t-98.5 48t-87.5 11q-84 0 -151 -27.5t-108.5 -73.5t-65.5 -99.5t-29 -112.5q-49 -453 -49 -479zM381 313q0 23 39 375 q6 66 51.5 111t118.5 45q75 0 117.5 -45.5t42.5 -116.5q0 -20 -33 -311q-9 -84 -61.5 -137.5t-135.5 -53.5q-68 0 -103.5 37t-35.5 96zM383 1266q0 39 12 73t40 66t85 51t137 19q234 0 234 -156q0 -43 -12.5 -78.5t-41.5 -67t-84.5 -49.5t-134.5 -18q-235 0 -235 160z M537 1278q0 -38 22.5 -59t67.5 -21q33 0 56.5 11.5t34 29.5t15 34t4.5 32q0 36 -22.5 56.5t-67.5 20.5q-34 0 -57.5 -11t-34 -29t-14.5 -33.5t-4 -30.5z" />
<glyph unicode="&#xe6;" horiz-adv-x="1562" d="M78 227q0 25 4 58q6 55 25 99.5t63.5 87.5t112.5 72t178 47t254 19q8 76 8 101q0 40 -14 66t-39.5 38t-50.5 16.5t-58 4.5q-141 0 -332 -82l-39 186q212 104 422 104q212 0 281 -106q95 106 303 106q172 0 269.5 -76t97.5 -231q0 -147 -95 -223t-313 -76h-190 q-9 -110 -9 -112q0 -146 195 -146q73 0 166.5 17t171.5 45l10 -201q-190 -61 -412 -61q-142 0 -242 48.5t-132 155.5q-31 -54 -72.5 -94t-79 -60.5t-80.5 -32.5t-70 -14.5t-55 -2.5q-74 0 -130 22t-87 59t-46 78.5t-15 87.5zM350 295q0 -52 33.5 -83.5t101.5 -31.5 q84 0 138.5 51.5t66.5 151.5l8 84q-82 -1 -143 -9t-98.5 -21t-61 -32t-33 -38.5t-12.5 -44.5v-27zM985 610h152q188 0 188 113q0 60 -39.5 93.5t-109.5 33.5q-76 0 -125.5 -44t-57.5 -118z" />
<glyph unicode="&#xe7;" horiz-adv-x="909" d="M113 291q0 35 39 381q40 372 454 372q176 0 357 -61l-54 -201q-85 33 -142 47.5t-126 14.5q-205 0 -227 -201q-29 -270 -29 -299q0 -164 186 -164q69 0 130.5 15t152.5 47l10 -201q-165 -53 -317 -59l-6 -78h18q90 0 139.5 -37.5t49.5 -108.5q0 -34 -5 -49 q-8 -81 -72.5 -136.5t-174.5 -55.5q-57 0 -127 13t-103 28l43 106q86 -33 170 -33q95 0 101 76v25q0 30 -21 43.5t-70 13.5h-69l20 193q-156 9 -241.5 84.5t-85.5 224.5z" />
<glyph unicode="&#xe8;" horiz-adv-x="995" d="M115 305q0 47 37 369q21 183 146.5 276.5t324.5 93.5q172 0 269 -76t97 -231q0 -157 -100.5 -237t-313.5 -80h-186q-6 -74 -6 -94q0 -146 195 -146q73 0 166 17t171 45l11 -201q-190 -61 -414 -61q-181 0 -289 80t-108 245zM356 1413h224l147 -287h-186zM410 592h141 q201 0 201 131q0 60 -39.5 93.5t-110.5 33.5q-76 0 -125 -44t-57 -118z" />
<glyph unicode="&#xe9;" horiz-adv-x="995" d="M115 305q0 47 37 369q21 183 146.5 276.5t324.5 93.5q172 0 269 -76t97 -231q0 -157 -100.5 -237t-313.5 -80h-186q-6 -74 -6 -94q0 -146 195 -146q73 0 166 17t171 45l11 -201q-190 -61 -414 -61q-181 0 -289 80t-108 245zM410 592h141q201 0 201 131q0 60 -39.5 93.5 t-110.5 33.5q-76 0 -125 -44t-57 -118zM532 1126h187l246 287h-222z" />
<glyph unicode="&#xea;" horiz-adv-x="995" d="M115 305q0 47 37 369q21 183 146.5 276.5t324.5 93.5q172 0 269 -76t97 -231q0 -157 -100.5 -237t-313.5 -80h-186q-6 -74 -6 -94q0 -146 195 -146q73 0 166 17t171 45l11 -201q-190 -61 -414 -61q-181 0 -289 80t-108 245zM326 1126l233 287h207l170 -287h-203l-88 152 l-117 -152h-202zM410 592h141q201 0 201 131q0 60 -39.5 93.5t-110.5 33.5q-76 0 -125 -44t-57 -118z" />
<glyph unicode="&#xeb;" horiz-adv-x="995" d="M115 305q0 47 37 369q21 183 146.5 276.5t324.5 93.5q172 0 269 -76t97 -231q0 -157 -100.5 -237t-313.5 -80h-186q-6 -74 -6 -94q0 -146 195 -146q73 0 166 17t171 45l11 -201q-190 -61 -414 -61q-181 0 -289 80t-108 245zM279 1159h266l30 289h-266zM410 592h141 q201 0 201 131q0 60 -39.5 93.5t-110.5 33.5q-76 0 -125 -44t-57 -118zM723 1159h266l31 289h-266z" />
<glyph unicode="&#xec;" horiz-adv-x="487" d="M88 1413h223l148 -287h-187zM111 0h266l108 1024h-266z" />
<glyph unicode="&#xed;" horiz-adv-x="487" d="M111 0h266l108 1024h-266zM264 1126h187l245 287h-221z" />
<glyph unicode="&#xee;" horiz-adv-x="487" d="M57 1126l234 287h207l170 -287h-203l-88 152l-117 -152h-203zM111 0h266l108 1024h-266z" />
<glyph unicode="&#xef;" horiz-adv-x="487" d="M10 1159h266l31 289h-266zM111 0h266l108 1024h-266zM455 1159h266l31 289h-267z" />
<glyph unicode="&#xf0;" horiz-adv-x="1161" d="M84 358q0 27 4 72q15 187 171.5 303.5t385.5 116.5h236q18 172 18 201q0 72 -44 118t-118 58l-16 -158h-141l16 162h-328l25 223h328l18 184h141l-18 -186q192 -12 306 -116t114 -265q0 -40 -70 -665q-20 -189 -175 -307.5t-382 -118.5q-213 0 -342 104.5t-129 273.5z M365 383q0 -85 58.5 -132.5t154.5 -47.5q102 0 173 55t80 148l25 221h-233q-102 0 -174.5 -54t-79.5 -143q-4 -35 -4 -47z" />
<glyph unicode="&#xf1;" horiz-adv-x="1079" d="M111 0h266l69 653q8 84 60 137.5t135 53.5q69 0 104 -38t35 -99q0 -40 -71 -707h266q78 729 78 770q0 54 -15.5 101t-48.5 87t-90.5 63t-134.5 23q-43 0 -91 -11t-111 -48t-107 -96l-13 135h-223zM340 1133q23 239 207 239q56 0 135.5 -37t103.5 -37q65 0 74 74h152 q-26 -239 -207 -239q-56 0 -137 37.5t-105 37.5q-65 0 -71 -75h-152z" />
<glyph unicode="&#xf2;" horiz-adv-x="1024" d="M115 299q0 41 37 375q20 183 146 276.5t325 93.5q184 0 289.5 -80.5t105.5 -240.5q0 -41 -37 -373q-20 -183 -146 -276.5t-325 -93.5q-184 0 -289.5 80.5t-105.5 238.5zM356 1413h224l147 -287h-186zM381 313q0 -66 39 -102.5t110 -36.5q76 0 125.5 44t57.5 118 q39 344 39 375q0 66 -39.5 102.5t-110.5 36.5q-76 0 -125 -44t-57 -118q-39 -344 -39 -375z" />
<glyph unicode="&#xf3;" horiz-adv-x="1024" d="M115 299q0 41 37 375q20 183 146 276.5t325 93.5q184 0 289.5 -80.5t105.5 -240.5q0 -41 -37 -373q-20 -183 -146 -276.5t-325 -93.5q-184 0 -289.5 80.5t-105.5 238.5zM381 313q0 -66 39 -102.5t110 -36.5q76 0 125.5 44t57.5 118q39 344 39 375q0 66 -39.5 102.5 t-110.5 36.5q-76 0 -125 -44t-57 -118q-39 -344 -39 -375zM532 1126h187l246 287h-222z" />
<glyph unicode="&#xf4;" horiz-adv-x="1024" d="M115 299q0 41 37 375q20 183 146 276.5t325 93.5q184 0 289.5 -80.5t105.5 -240.5q0 -41 -37 -373q-20 -183 -146 -276.5t-325 -93.5q-184 0 -289.5 80.5t-105.5 238.5zM326 1126l233 287h207l170 -287h-203l-88 152l-117 -152h-202zM381 313q0 -66 39 -102.5t110 -36.5 q76 0 125.5 44t57.5 118q39 344 39 375q0 66 -39.5 102.5t-110.5 36.5q-76 0 -125 -44t-57 -118q-39 -344 -39 -375z" />
<glyph unicode="&#xf5;" horiz-adv-x="1024" d="M115 299q0 41 37 375q20 183 146 276.5t325 93.5q184 0 289.5 -80.5t105.5 -240.5q0 -41 -37 -373q-20 -183 -146 -276.5t-325 -93.5q-184 0 -289.5 80.5t-105.5 238.5zM309 1133q23 239 207 239q56 0 136 -37t104 -37q64 0 73 74h152q-26 -239 -207 -239 q-56 0 -137 37.5t-105 37.5q-65 0 -71 -75h-152zM381 313q0 -66 39 -102.5t110 -36.5q76 0 125.5 44t57.5 118q39 344 39 375q0 66 -39.5 102.5t-110.5 36.5q-76 0 -125 -44t-57 -118q-39 -344 -39 -375z" />
<glyph unicode="&#xf6;" horiz-adv-x="1024" d="M115 299q0 41 37 375q20 183 146 276.5t325 93.5q184 0 289.5 -80.5t105.5 -240.5q0 -41 -37 -373q-20 -183 -146 -276.5t-325 -93.5q-184 0 -289.5 80.5t-105.5 238.5zM279 1159h266l30 289h-266zM381 313q0 -66 39 -102.5t110 -36.5q76 0 125.5 44t57.5 118 q39 344 39 375q0 66 -39.5 102.5t-110.5 36.5q-76 0 -125 -44t-57 -118q-39 -344 -39 -375zM723 1159h266l31 289h-266z" />
<glyph unicode="&#xf7;" horiz-adv-x="948" d="M164 623l20 208h756l-22 -208h-754zM385 279h238l26 258h-237zM453 918h237l27 258h-238z" />
<glyph unicode="&#xf8;" horiz-adv-x="1024" d="M76 -41l104 139q-65 78 -65 201q0 41 37 375q20 183 146 276.5t325 93.5q145 0 239 -49l53 70h142l-107 -139q68 -81 68 -203q0 -41 -37 -373q-20 -183 -146 -276.5t-325 -93.5q-146 0 -240 49l-53 -70h-141zM385 365l334 442q-37 43 -117 43q-76 0 -125 -44t-57 -118 q-8 -79 -16.5 -153.5t-12.5 -112.5zM414 217q37 -43 116 -43q76 0 125.5 44t57.5 118q8 79 16.5 153.5t12.5 112.5l6 57z" />
<glyph unicode="&#xf9;" horiz-adv-x="1079" d="M135 252q0 -54 16 -101t49 -86t90.5 -62t133.5 -23q43 0 90.5 11t110 48t106.5 96l14 -135h224l108 1024h-266l-70 -653q-8 -84 -60.5 -137.5t-133.5 -53.5q-68 0 -103.5 37t-35.5 96q0 42 73 711h-266q-80 -731 -80 -772zM385 1413h223l148 -287h-187z" />
<glyph unicode="&#xfa;" horiz-adv-x="1079" d="M135 252q0 -54 16 -101t49 -86t90.5 -62t133.5 -23q43 0 90.5 11t110 48t106.5 96l14 -135h224l108 1024h-266l-70 -653q-8 -84 -60.5 -137.5t-133.5 -53.5q-68 0 -103.5 37t-35.5 96q0 42 73 711h-266q-80 -731 -80 -772zM561 1126h187l245 287h-221z" />
<glyph unicode="&#xfb;" horiz-adv-x="1079" d="M135 252q0 -54 16 -101t49 -86t90.5 -62t133.5 -23q43 0 90.5 11t110 48t106.5 96l14 -135h224l108 1024h-266l-70 -653q-8 -84 -60.5 -137.5t-133.5 -53.5q-68 0 -103.5 37t-35.5 96q0 42 73 711h-266q-80 -731 -80 -772zM354 1126l234 287h207l170 -287h-203l-88 152 l-117 -152h-203z" />
<glyph unicode="&#xfc;" horiz-adv-x="1079" d="M135 252q0 -54 16 -101t49 -86t90.5 -62t133.5 -23q43 0 90.5 11t110 48t106.5 96l14 -135h224l108 1024h-266l-70 -653q-8 -84 -60.5 -137.5t-133.5 -53.5q-68 0 -103.5 37t-35.5 96q0 42 73 711h-266q-80 -731 -80 -772zM307 1159h266l31 289h-266zM752 1159h266 l31 289h-267z" />
<glyph unicode="&#xfd;" horiz-adv-x="970" d="M-43 -410l41 201q25 -8 71.5 -14t67.5 -6q85 0 125.5 29.5t77.5 107.5l39 82h-29l-229 1034h268l141 -727l277 727h258l-481 -1092q-49 -112 -96 -183t-102 -110.5t-112 -54t-137 -14.5q-74 0 -180 20zM510 1126h186l246 287h-221z" />
<glyph unicode="&#xfe;" horiz-adv-x="1060" d="M68 -410l198 1885h266l-61 -572q65 76 145 108.5t148 32.5q77 0 134.5 -23t90.5 -63t48.5 -87t15.5 -101q0 -35 -47 -477q-6 -59 -30 -112.5t-65.5 -99.5t-108.5 -73.5t-151 -27.5q-68 0 -141.5 32.5t-120.5 108.5l-55 -531h-266zM414 342q0 -73 41 -117.5t116 -44.5 q73 0 118.5 44.5t53.5 111.5q37 340 37 371q0 61 -35 99t-104 38q-82 0 -134 -53t-61 -138q-32 -274 -32 -311z" />
<glyph unicode="&#xff;" horiz-adv-x="970" d="M-43 -410l41 201q25 -8 71.5 -14t67.5 -6q85 0 125.5 29.5t77.5 107.5l39 82h-29l-229 1034h268l141 -727l277 727h258l-481 -1092q-49 -112 -96 -183t-102 -110.5t-112 -54t-137 -14.5q-74 0 -180 20zM254 1159h266l31 289h-266zM698 1159h267l30 289h-266z" />
<glyph unicode="&#x152;" horiz-adv-x="1828" d="M141 352q0 35 70 676q22 192 164 309t366 117q281 0 359 -182l16 162h797l-25 -224h-631l-38 -372h510l-25 -222h-508l-41 -393h629l-23 -223h-796l16 162q-112 -182 -395 -182q-208 0 -326.5 101.5t-118.5 270.5zM426 383q0 -85 58.5 -132.5t154.5 -47.5q101 0 172.5 55 t81.5 148q65 601 65 645q0 85 -58.5 132.5t-154.5 47.5q-101 0 -172 -55t-81 -148q-66 -610 -66 -645z" />
<glyph unicode="&#x153;" horiz-adv-x="1591" d="M115 299q0 41 37 375q20 183 146 276.5t325 93.5q215 0 288 -112q99 112 312 112q173 0 270.5 -76t97.5 -231q0 -317 -415 -317h-185q-2 -19 -4 -39.5t-3 -32.5t-1 -22q0 -146 195 -146q75 0 168 17t170 45l12 -201q-195 -61 -414 -61q-223 0 -291 112 q-99 -112 -313 -112q-184 0 -289.5 80.5t-105.5 238.5zM381 313q0 -66 39 -102.5t110 -36.5q76 0 125.5 44t57.5 118q39 354 39 375q0 66 -39.5 102.5t-110.5 36.5q-76 0 -125 -44t-57 -118q-39 -342 -39 -375zM1010 592h141q201 0 201 131q0 60 -39.5 93.5t-110.5 33.5 q-76 0 -125 -44t-57 -118z" />
<glyph unicode="&#x178;" horiz-adv-x="1208" d="M152 1434h294l238 -646l385 646h297l-569 -899l-58 -535h-280l57 535zM414 1569h266l31 289h-267zM858 1569h266l31 289h-266z" />
<glyph unicode="&#x2c6;" horiz-adv-x="1019" d="M324 1126l233 287h207l170 -287h-203l-88 152l-117 -152h-202z" />
<glyph unicode="&#x2dc;" horiz-adv-x="663" d="M219 1133q23 239 207 239q56 0 136 -37t104 -37q64 0 73 74h152q-26 -239 -207 -239q-56 0 -137 37.5t-105 37.5q-65 0 -71 -75h-152z" />
<glyph unicode="&#x2000;" horiz-adv-x="942" />
<glyph unicode="&#x2001;" horiz-adv-x="1884" />
<glyph unicode="&#x2002;" horiz-adv-x="942" />
<glyph unicode="&#x2003;" horiz-adv-x="1884" />
<glyph unicode="&#x2004;" horiz-adv-x="628" />
<glyph unicode="&#x2005;" horiz-adv-x="471" />
<glyph unicode="&#x2006;" horiz-adv-x="314" />
<glyph unicode="&#x2007;" horiz-adv-x="314" />
<glyph unicode="&#x2008;" horiz-adv-x="235" />
<glyph unicode="&#x2009;" horiz-adv-x="376" />
<glyph unicode="&#x200a;" horiz-adv-x="104" />
<glyph unicode="&#x2010;" horiz-adv-x="909" d="M150 408l22 208h696l-22 -208h-696z" />
<glyph unicode="&#x2011;" horiz-adv-x="909" d="M150 408l22 208h696l-22 -208h-696z" />
<glyph unicode="&#x2012;" horiz-adv-x="909" d="M150 408l22 208h696l-22 -208h-696z" />
<glyph unicode="&#x2013;" horiz-adv-x="1216" d="M150 408l22 208h1004l-23 -208h-1003z" />
<glyph unicode="&#x2014;" horiz-adv-x="1421" d="M150 408l22 208h1208l-22 -208h-1208z" />
<glyph unicode="&#x2018;" horiz-adv-x="464" d="M213 879h238l26 260l-55 295h-150z" />
<glyph unicode="&#x2019;" horiz-adv-x="456" d="M223 1176l29 258h237l-59 -555h-151z" />
<glyph unicode="&#x201a;" horiz-adv-x="468" d="M117 0l26 258h238l-59 -553h-150z" />
<glyph unicode="&#x201c;" horiz-adv-x="954" d="M213 879l59 555h150l55 -295l-26 -260h-238zM702 879l60 555h151l54 -295l-27 -260h-238z" />
<glyph unicode="&#x201d;" horiz-adv-x="948" d="M223 1176l29 258h237l-59 -555h-151zM713 1176l28 258h238l-59 -555h-150z" />
<glyph unicode="&#x201e;" horiz-adv-x="960" d="M117 0l26 258h238l-59 -553h-150zM606 0l29 258h235l-57 -553h-151z" />
<glyph unicode="&#x2022;" horiz-adv-x="507" d="M182 594h267l30 287h-266z" />
<glyph unicode="&#x2026;" horiz-adv-x="1449" d="M117 0h237l27 258h-238zM606 0h238l26 258h-235zM1098 0h235l29 258h-238z" />
<glyph unicode="&#x202f;" horiz-adv-x="376" />
<glyph unicode="&#x2039;" horiz-adv-x="692" d="M100 414l21 194l575 389l-22 -225l-312 -258v-4l256 -258l-24 -225z" />
<glyph unicode="&#x203a;" horiz-adv-x="692" d="M104 27l574 387l22 194l-493 389l-25 -225l254 -258v-4l-309 -258z" />
<glyph unicode="&#x205f;" horiz-adv-x="471" />
<glyph unicode="&#x20ac;" horiz-adv-x="1312" d="M131 500l14 151h109l16 146h-108l14 149h111l8 82q20 189 176 307.5t383 118.5q213 0 342 -105.5t129 -277.5q0 -28 -16 -149h-267q15 107 15 127q0 84 -65 133t-163 49q-102 0 -173.5 -55t-80.5 -148l-8 -82h203l-16 -149h-203l-16 -146h204l-16 -151h-205 q-10 -106 -10 -121q0 -88 58 -132t155 -44q107 0 182.5 51.5t85.5 151.5l10 106h267l-11 -106q-20 -189 -175 -307.5t-382 -118.5q-213 0 -342 104.5t-129 273.5q0 25 11 142h-107z" />
<glyph unicode="&#x2122;" horiz-adv-x="1613" d="M242 1298l16 136h547l-17 -136h-186l-76 -725h-172l78 725h-190zM807 573l92 861h180l154 -349l225 349h170l-92 -861h-170l37 351q2 21 29 211l-162 -242h-135l-111 250q-12 -168 -18 -219l-37 -351h-162z" />
<glyph unicode="&#xe000;" horiz-adv-x="1024" d="M0 0v1024h1024v-1024h-1024z" />
<glyph unicode="&#xfb03;" horiz-adv-x="1763" d="M117 -410l133 1254h-113l19 180h114l19 182q15 154 93 221.5t222 67.5q93 0 199 -20l-37 -193q-58 12 -92 12q-60 0 -88.5 -28.5t-34.5 -87.5l-14 -154h346l16 162q17 154 95.5 221.5t222.5 67.5h593l-34 -316h-267l13 115h-238q-60 0 -88 -29t-33 -88l-14 -133h207 l-19 -180h-207l-135 -1254h-266l135 1254h-348l-133 -1254h-266zM1389 0l108 1024h266l-108 -1024h-266z" />
<glyph unicode="&#xfb04;" horiz-adv-x="1763" d="M117 -410l133 1254h-113l19 180h114l19 182q15 154 93 221.5t222 67.5q93 0 199 -20l-37 -193q-58 12 -92 12q-60 0 -88.5 -28.5t-34.5 -87.5l-14 -154h346l16 162q17 154 95.5 221.5t222.5 67.5h593l-155 -1475h-266l135 1274h-240q-60 0 -88 -29t-33 -88l-14 -133h207 l-19 -180h-207l-135 -1254h-266l135 1254h-348l-133 -1254h-266z" />
</font>
</defs>
</svg>
